<svg xmlns="http://www.w3.org/2000/svg" xmlns:xlink="http://www.w3.org/1999/xlink" version="1.1" width="1000" height="1000" viewBox="0 0 1000 1000" xml:space="preserve">
<desc>Created with Fabric.js 3.5.0</desc>
<defs>
</defs>
<rect x="0" y="0" width="100%" height="100%" fill="#ffffff"/>
<g transform="matrix(1.8182 0 0 1.8182 500.0045 500.0045)" id="465791">
<g style="" vector-effect="non-scaling-stroke">
		<g transform="matrix(1 0 0 1 -200 -200)">
<rect style="stroke: none; stroke-width: 1; stroke-dasharray: none; stroke-linecap: butt; stroke-dashoffset: 0; stroke-linejoin: miter; stroke-miterlimit: 4; is-custom-font: none; font-file-url: none; fill: rgb(255,255,255); fill-rule: nonzero; opacity: 1;" x="-50" y="-50" rx="0" ry="0" width="100" height="100"/>
</g>
		<g transform="matrix(0.1846 0 0 0.1846 -0.0097 176.8875)" id="363050">
<path style="stroke: none; stroke-width: 0; stroke-dasharray: none; stroke-linecap: butt; stroke-dashoffset: 0; stroke-linejoin: miter; stroke-miterlimit: 4; is-custom-font: none; font-file-url: none; fill: rgb(0,0,0); fill-rule: nonzero; opacity: 1;" vector-effect="non-scaling-stroke" transform=" translate(-316.74, -316.74)" d="M 540.709 92.77 C 480.885 32.945 401.344 0 316.74 0 S 152.595 32.945 92.771 92.77 C 32.947 152.595 0 232.135 0 316.74 c 0 84.604 32.946 164.144 92.771 223.968 c 59.824 59.824 139.365 92.772 223.969 92.772 s 164.145 -32.948 223.969 -92.772 S 633.48 401.344 633.48 316.74 C 633.48 232.135 600.534 152.595 540.709 92.77 z M 612.951 316.74 c 0 65.002 -21.063 125.168 -56.701 174.067 c -1.075 -1.901 -3.123 -3.17 -5.466 -3.093 l -37.202 1.24 c -5.303 -6.023 -10.353 -12.284 -15.146 -18.763 l 30.31 3.958 c 3.339 0.436 6.416 -1.919 6.865 -5.255 c 0.451 -3.34 -1.893 -6.398 -5.233 -6.834 l -41.392 -5.404 c -2.672 -4.084 -5.237 -8.211 -7.674 -12.39 l 27.626 6.993 c 3.267 0.828 6.596 -1.146 7.434 -4.407 c 0.84 -3.265 -1.128 -6.579 -4.395 -7.403 l -38.602 -9.775 c -2.858 -5.637 -5.513 -11.342 -7.966 -17.104 l 28.778 11 c 3.146 1.206 6.682 -0.369 7.894 -3.511 c 1.213 -3.142 -0.355 -6.665 -3.501 -7.868 l -39.18 -14.979 c -1.597 -4.462 -3.076 -8.95 -4.439 -13.464 l 26.498 13.83 c 2.986 1.559 6.678 0.404 8.243 -2.577 c 1.566 -2.984 0.415 -6.665 -2.572 -8.223 l -36.498 -19.052 c -1.103 -4.608 -2.089 -9.239 -2.956 -13.885 l 24.555 16.635 c 2.787 1.89 6.586 1.162 8.479 -1.621 c 1.896 -2.787 1.171 -6.576 -1.618 -8.467 l -33.986 -23.023 c -0.604 -4.783 -1.095 -9.578 -1.455 -14.375 l 22.835 19.573 c 2.556 2.193 6.411 1.898 8.604 -0.656 c 2.198 -2.555 1.905 -6.404 -0.652 -8.595 l -31.538 -27.037 c -0.08 -4.994 -0.032 -9.989 0.149 -14.979 l 19.116 20.535 c 2.292 2.466 6.156 2.606 8.622 0.312 c 2.469 -2.295 2.609 -6.152 0.312 -8.618 l -26.955 -28.958 c 0.489 -5.118 1.132 -10.222 1.897 -15.309 l 17.211 23.253 c 2.002 2.707 5.824 3.276 8.532 1.271 s 3.279 -5.822 1.274 -8.531 l -24.039 -32.476 c 1.241 -5.874 2.669 -11.714 4.281 -17.508 l 14.698 25.418 c 1.685 2.916 5.417 3.912 8.333 2.223 c 2.916 -1.689 3.914 -5.422 2.227 -8.337 l -20.34 -35.174 c 1.984 -5.791 4.161 -11.524 6.527 -17.192 l 11.554 26.569 c 1.342 3.091 4.936 4.502 8.023 3.153 c 3.089 -1.346 4.505 -4.943 3.161 -8.03 l -15.96 -36.703 c 2.373 -4.866 4.9 -9.669 7.564 -14.412 l 8.279 27.303 c 0.977 3.226 4.383 5.041 7.605 4.056 c 3.223 -0.982 5.045 -4.394 4.066 -7.615 l -11.478 -37.852 c 2.951 -4.603 6.036 -9.136 9.275 -13.59 l 4.749 26.576 c 0.59 3.313 3.76 5.516 7.076 4.914 c 3.316 -0.599 5.524 -3.774 4.932 -7.088 l -6.682 -37.401 c 2.396 -2.919 4.859 -5.794 7.386 -8.63 l 1.491 25.988 c 0.192 3.359 3.077 5.923 6.441 5.717 c 3.364 -0.2 5.936 -3.093 5.741 -6.453 l -1.793 -31.243 C 579.764 161.098 612.951 235.115 612.951 316.74 z M 537.964 513.483 c -4.578 -4.082 -9.021 -8.321 -13.335 -12.691 l 24.691 -0.825 C 545.671 504.59 541.876 509.091 537.964 513.483 z M 106.271 108.527 l -1.733 30.184 c -0.193 3.36 2.377 6.253 5.742 6.453 c 3.364 0.206 6.25 -2.357 6.44 -5.717 l 1.492 -25.988 c 2.528 2.836 4.991 5.711 7.386 8.63 l -6.683 37.401 c -0.593 3.313 1.616 6.489 4.932 7.088 c 3.316 0.602 6.487 -1.601 7.077 -4.914 l 4.748 -26.576 c 3.239 4.451 6.323 8.987 9.275 13.59 l -11.478 37.852 c -0.978 3.222 0.842 6.633 4.067 7.615 c 3.222 0.985 6.629 -0.83 7.604 -4.056 l 8.28 -27.303 c 2.662 4.743 5.191 9.546 7.563 14.409 l -15.961 36.706 c -1.344 3.087 0.071 6.685 3.162 8.03 c 3.087 1.349 6.682 -0.062 8.024 -3.153 l 11.553 -26.569 c 2.364 5.668 4.542 11.401 6.527 17.189 l -20.34 35.177 c -1.687 2.915 -0.69 6.647 2.227 8.337 c 2.916 1.689 6.647 0.693 8.332 -2.223 l 14.7 -25.418 c 1.612 5.794 3.04 11.634 4.282 17.508 l -24.04 32.476 c -2.005 2.709 -1.435 6.526 1.274 8.531 c 2.707 2.005 6.53 1.436 8.532 -1.271 l 17.211 -23.253 c 0.765 5.087 1.408 10.19 1.897 15.309 l -26.957 28.958 c -2.295 2.466 -2.155 6.323 0.314 8.618 c 2.466 2.294 6.328 2.153 8.622 -0.312 l 19.115 -20.535 c 0.183 4.989 0.23 9.984 0.151 14.979 l -31.539 27.037 c -2.558 2.19 -2.851 6.04 -0.654 8.595 c 2.195 2.555 6.05 2.85 8.606 0.656 l 22.835 -19.576 c -0.359 4.8 -0.851 9.592 -1.455 14.378 l -33.986 23.023 c -2.79 1.891 -3.515 5.68 -1.618 8.467 c 1.893 2.783 5.69 3.511 8.479 1.621 l 24.555 -16.635 c -0.867 4.646 -1.853 9.273 -2.955 13.885 l -36.5 19.052 c -2.987 1.558 -4.139 5.238 -2.571 8.223 c 1.564 2.981 5.257 4.136 8.243 2.577 l 26.498 -13.83 c -1.363 4.514 -2.841 9.002 -4.438 13.461 l -39.181 14.981 c -3.148 1.203 -4.716 4.727 -3.501 7.868 c 1.211 3.142 4.747 4.717 7.893 3.511 l 28.779 -11 c -2.453 5.762 -5.108 11.467 -7.966 17.104 l -38.603 9.775 c -3.267 0.824 -5.234 4.139 -4.395 7.403 c 0.838 3.262 4.167 5.235 7.432 4.407 l 27.629 -6.993 c -2.438 4.179 -5.002 8.306 -7.674 12.39 l -41.393 5.404 c -3.342 0.436 -5.685 3.494 -5.234 6.834 c 0.449 3.336 3.524 5.69 6.865 5.255 l 30.31 -3.958 c -4.794 6.476 -9.843 12.739 -15.146 18.763 l -37.202 -1.24 c -2.039 -0.069 -3.862 0.882 -5.014 2.383 C 41.388 441.326 20.53 381.428 20.53 316.74 C 20.53 235.646 53.295 162.07 106.271 108.527 z M 84.189 500.001 l 23.689 0.791 c -4.144 4.197 -8.41 8.269 -12.798 12.202 C 91.332 508.766 87.693 504.44 84.189 500.001 z M 106.1 524.778 c 4.845 -4.352 9.547 -8.858 14.106 -13.516 l -0.744 26.229 C 114.878 533.391 110.422 529.151 106.1 524.778 z M 128.88 545.587 c 1.574 -1.056 2.64 -2.818 2.697 -4.861 l 1.224 -43.161 c 4.028 -4.66 7.925 -9.446 11.671 -14.36 l 3.327 24.65 c 0.449 3.34 3.522 5.693 6.865 5.256 c 3.341 -0.436 5.684 -3.494 5.234 -6.834 l -5.059 -37.473 c 0.023 -0.034 0.045 -0.066 0.067 -0.098 c 3.383 -5.023 6.579 -10.13 9.619 -15.294 l 6.722 26.137 c 0.84 3.266 4.166 5.239 7.433 4.411 s 5.234 -4.142 4.395 -7.403 l -9.97 -38.771 c 2.469 -4.832 4.808 -9.712 6.994 -14.636 l 8.857 22.95 c 1.213 3.145 4.747 4.717 7.895 3.514 c 3.146 -1.203 4.714 -4.726 3.501 -7.87 l -13.532 -35.064 c 1.882 -5.026 3.629 -10.09 5.229 -15.186 l 11.88 22.623 c 1.566 2.984 5.255 4.139 8.244 2.578 c 2.985 -1.559 4.137 -5.238 2.57 -8.22 l -17.885 -34.062 c 1.231 -4.935 2.327 -9.893 3.303 -14.867 l 14.518 21.343 c 1.895 2.784 5.691 3.512 8.48 1.621 c 2.79 -1.888 3.514 -5.68 1.62 -8.463 l -21.721 -31.932 c 0.659 -4.86 1.186 -9.734 1.605 -14.615 l 16.57 19.281 c 2.196 2.555 6.049 2.85 8.606 0.655 c 2.557 -2.19 2.851 -6.04 0.654 -8.595 l -24.832 -28.893 c 0.17 -6.255 0.148 -12.513 -0.072 -18.762 l 20.07 18.656 c 2.469 2.294 6.328 2.156 8.623 -0.31 c 2.296 -2.466 2.155 -6.324 -0.312 -8.618 l -29.521 -27.443 c -0.47 -4.98 -1.071 -9.946 -1.787 -14.901 l 21.323 15.781 c 2.708 2.008 6.527 1.438 8.532 -1.271 c 2.004 -2.707 1.434 -6.524 -1.275 -8.529 l -31.615 -23.399 c -1.221 -5.957 -2.622 -11.883 -4.206 -17.763 l 22.536 13.046 c 2.917 1.689 6.647 0.695 8.334 -2.22 c 1.685 -2.916 0.689 -6.65 -2.228 -8.338 l -33.8 -19.569 c -2.061 -6.164 -4.323 -12.272 -6.79 -18.31 l 24.206 10.56 c 3.09 1.346 6.682 -0.063 8.024 -3.153 c 1.344 -3.088 -0.073 -6.685 -3.16 -8.031 l -36.415 -15.884 c -2.476 -5.144 -5.105 -10.228 -7.887 -15.242 l 25.686 7.836 c 3.224 0.985 6.627 -0.831 7.605 -4.053 s -0.844 -6.633 -4.067 -7.615 l -38.489 -11.746 c -3.374 -5.292 -6.922 -10.496 -10.652 -15.603 l 27.993 5.072 c 3.318 0.598 6.485 -1.602 7.077 -4.918 c 0.593 -3.313 -1.616 -6.487 -4.932 -7.089 l -41.388 -7.495 c -2.712 -3.265 -5.505 -6.481 -8.373 -9.648 l 29.333 1.772 c 3.365 0.203 6.248 -2.357 6.441 -5.72 s -2.377 -6.252 -5.741 -6.455 l -30.862 -1.861 c 51.306 -42.57 117.148 -68.196 188.867 -68.196 c 71.688 0 137.505 25.604 188.8 68.142 l -31.768 1.916 c -3.364 0.203 -5.936 3.093 -5.743 6.455 s 3.076 5.923 6.441 5.72 l 29.335 -1.772 c -2.868 3.167 -5.66 6.384 -8.373 9.648 l -41.39 7.495 c -3.315 0.602 -5.523 3.775 -4.932 7.089 c 0.593 3.316 3.761 5.516 7.077 4.918 l 27.994 -5.072 c -3.731 5.106 -7.278 10.311 -10.652 15.603 l -38.49 11.746 c -3.223 0.982 -5.043 4.394 -4.065 7.615 c 0.977 3.222 4.382 5.038 7.605 4.053 l 25.687 -7.836 c -2.783 5.015 -5.412 10.099 -7.888 15.242 l -36.415 15.884 c -3.089 1.347 -4.504 4.943 -3.16 8.031 c 1.343 3.09 4.935 4.499 8.025 3.153 l 24.206 -10.56 c -2.466 6.037 -4.729 12.146 -6.789 18.31 l -33.802 19.569 c -2.916 1.688 -3.912 5.422 -2.227 8.338 c 1.687 2.915 5.416 3.909 8.333 2.22 l 22.537 -13.049 c -1.584 5.883 -2.984 11.809 -4.206 17.766 l -31.616 23.399 c -2.708 2.005 -3.279 5.822 -1.274 8.529 c 2.003 2.709 5.822 3.279 8.532 1.271 l 21.322 -15.781 c -0.716 4.952 -1.317 9.921 -1.787 14.901 l -29.521 27.443 c -2.469 2.294 -2.608 6.152 -0.313 8.618 c 2.295 2.466 6.156 2.604 8.625 0.31 l 20.07 -18.656 c -0.219 6.246 -0.242 12.504 -0.07 18.762 l -24.833 28.893 c -2.197 2.555 -1.903 6.404 0.653 8.595 c 2.559 2.194 6.411 1.899 8.608 -0.655 l 16.571 -19.281 c 0.418 4.878 0.945 9.752 1.604 14.615 l -21.721 31.932 c -1.895 2.783 -1.17 6.575 1.618 8.463 c 2.789 1.891 6.586 1.163 8.481 -1.621 l 14.518 -21.346 c 0.977 4.975 2.071 9.936 3.304 14.87 l -17.886 34.062 c -1.566 2.981 -0.415 6.661 2.571 8.22 c 2.987 1.561 6.677 0.406 8.244 -2.578 l 11.88 -22.626 c 1.6 5.099 3.347 10.159 5.228 15.188 l -13.532 35.064 c -1.213 3.145 0.354 6.667 3.501 7.87 c 3.148 1.203 6.681 -0.369 7.895 -3.514 l 8.857 -22.953 c 2.186 4.927 4.525 9.804 6.994 14.636 l -9.97 38.773 c -0.839 3.262 1.128 6.575 4.394 7.403 c 3.268 0.828 6.594 -1.146 7.434 -4.411 l 6.722 -26.14 c 3.04 5.167 6.238 10.271 9.62 15.297 c 0.021 0.031 0.045 0.063 0.066 0.095 l -5.06 37.476 c -0.451 3.34 1.893 6.398 5.234 6.834 c 3.341 0.438 6.414 -1.916 6.865 -5.256 l 3.327 -24.65 c 3.746 4.914 7.641 9.7 11.671 14.36 l 1.223 43.161 c 0.066 2.279 1.387 4.201 3.27 5.185 c -51.099 41.874 -116.393 67.04 -187.458 67.04 C 245.49 612.95 180.038 587.658 128.88 545.587 z M 513.069 538.334 l -0.768 -27.068 c 4.721 4.82 9.593 9.487 14.621 13.98 C 522.447 529.756 517.823 534.118 513.069 538.334 z" stroke-linecap="round"/>
</g>
		<g transform="matrix(1 0 0 1 -175.2035 -9.205)" id="890085">
<path style="stroke: none; stroke-width: 0; stroke-dasharray: none; stroke-linecap: butt; stroke-dashoffset: 0; stroke-linejoin: miter; stroke-miterlimit: 4; is-custom-font: none; font-file-url: none; fill: rgb(0,0,0); fill-rule: nonzero; opacity: 1;" transform=" translate(-0.155, 9.205)" d="M 40.87 -58.93 L 40.87 -58.93 Q 43.9 -62.49 44.05 -67.1 L 44.05 -67.1 L 50.25 -67.1 L 50.25 -35.39 L 43.82 -35.39 Q 41.63 -47.96 31.82 -55.15 Q 22.02 -62.34 10.52 -62.34 L 10.52 -62.34 Q -27.78 -62.34 -27.47 -8.83 L -27.47 -8.83 Q -27.25 12.44 -19 26.52 L -19 26.52 Q -9.46 42.79 8.7 42.79 L 8.7 42.79 Q 22.55 42.79 32.13 37.91 Q 41.7 33.03 47.15 24.7 L 47.15 24.7 L 51.09 28.33 Q 48.21 35.22 39.13 41.5 L 39.13 41.5 Q 26.64 50.21 7.8 50.21 L 7.8 50.21 Q -19 50.21 -34.89 33.52 Q -50.78 16.83 -50.78 -8.98 Q -50.78 -34.79 -34.93 -51.7 Q -19.07 -68.62 9.16 -68.62 L 9.16 -68.62 Q 24.45 -68.62 35.8 -62.41 L 35.8 -62.41 Q 38.98 -60.67 40.87 -58.93 Z" stroke-linecap="round"/>
</g>
		<g transform="matrix(1 0 0 1 -0.3751 -171.63)" id="35784">
<path style="stroke: none; stroke-width: 0; stroke-dasharray: none; stroke-linecap: butt; stroke-dashoffset: 0; stroke-linejoin: miter; stroke-miterlimit: 4; is-custom-font: none; font-file-url: none; fill: rgb(0,0,0); fill-rule: nonzero; opacity: 1;" transform=" translate(0.375, 9.205)" d="M -47.72 48.69 L -47.72 42.79 L -32.66 42.79 L -32.58 -61.2 L -47.79 -61.2 L -47.79 -67.1 L 47.04 -67.1 L 47.04 -33.73 L 41.13 -33.73 Q 40.3 -47.96 36.52 -53.33 L 36.52 -53.33 Q 31.52 -60.52 17.82 -61.2 L 17.82 -61.2 L -12.22 -61.2 L -12.22 -11.48 L 4.12 -11.48 Q 10.48 -11.48 14.3 -13.6 Q 18.13 -15.72 18.88 -20.86 L 18.88 -20.86 Q 19.03 -22.38 19.15 -24.31 Q 19.26 -26.24 19.41 -27.9 L 19.41 -27.9 L 25.62 -27.9 L 25.62 11.68 L 19.41 11.68 Q 19.26 9.94 19.15 7.63 Q 19.03 5.33 18.88 3.81 L 18.88 3.81 Q 17.52 -5.57 4.12 -5.57 L 4.12 -5.57 L -12.22 -5.57 L -12.22 42.79 L 12.3 42.79 L 12.3 48.69 L -47.72 48.69 Z" stroke-linecap="round"/>
</g>
		<g transform="matrix(1 0 0 1 181.9268 -9.205)" id="575887">
<path style="stroke: none; stroke-width: 0; stroke-dasharray: none; stroke-linecap: butt; stroke-dashoffset: 0; stroke-linejoin: miter; stroke-miterlimit: 4; is-custom-font: none; font-file-url: none; fill: rgb(0,0,0); fill-rule: nonzero; opacity: 1;" transform=" translate(0.645, 9.205)" d="M -46.36 48.69 L -46.36 42.71 L -30.16 42.79 L -30.08 -61.28 L -42.8 -61.28 L -42.8 -67.1 L 3.75 -67.1 L 3.75 -61.28 L -9.73 -61.28 L -9.73 42.79 L 13.43 42.79 Q 33.34 42.79 37.58 24.4 L 37.58 24.4 Q 38.79 19.1 39.17 13.5 L 39.17 13.5 L 45.07 13.5 L 45.07 48.69 L -46.36 48.69 Z" stroke-linecap="round"/>
</g>
		<g transform="matrix(0.0979 0 0 -0.098 -66.8472 -67.3961)" id="398947">
<path style="stroke: none; stroke-width: 1; stroke-dasharray: none; stroke-linecap: butt; stroke-dashoffset: 0; stroke-linejoin: miter; stroke-miterlimit: 4; is-custom-font: none; font-file-url: none; fill: rgb(0,0,0); fill-rule: nonzero; opacity: 1;" transform=" translate(-2380.0811, -3737.2968)" d="M 760 5567 c -73 -34 -167 -123 -204 -194 c -9 -18 -16 -55 -16 -84 l 0 -53 l 298 -295 c 478 -476 931 -913 1072 -1035 c 25 -22 86 -76 135 -122 c 50 -45 115 -104 146 -130 c 30 -27 96 -85 145 -129 c 49 -44 108 -96 130 -115 c 62 -53 306 -276 423 -385 c 35 -33 69 -64 75 -70 c 37 -33 258 -236 292 -270 c 22 -22 88 -83 145 -135 c 57 -52 148 -138 203 -190 c 54 -52 104 -100 110 -105 c 6 -6 83 -77 171 -159 c 88 -83 172 -161 188 -175 l 27 -25 l 64 63 c 69 68 70 75 27 120 c -109 114 -413 433 -481 506 c -46 50 -121 128 -165 175 c -98 102 -225 237 -320 340 c -39 41 -109 115 -156 165 c -96 100 -348 377 -479 526 c -104 118 -347 386 -375 414 c -11 12 -74 79 -140 150 c -117 126 -488 505 -945 965 c -124 124 -240 234 -259 243 c -39 19 -75 21 -111 4 z" stroke-linecap="round"/>
</g>
		<g transform="matrix(0.0979 0 0 -0.098 126.1752 -126.1941)" id="574841">
<path style="stroke: none; stroke-width: 1; stroke-dasharray: none; stroke-linecap: butt; stroke-dashoffset: 0; stroke-linejoin: miter; stroke-miterlimit: 4; is-custom-font: none; font-file-url: none; fill: rgb(0,0,0); fill-rule: nonzero; opacity: 1;" transform=" translate(-4353.5, -4337.2754)" d="M 5270 5561 c -27 -15 -922 -901 -1060 -1050 c -27 -29 -138 -147 -260 -276 c -81 -85 -255 -277 -489 -539 c -79 -89 -191 -212 -249 -274 l -105 -113 l 104 -105 c 57 -57 106 -104 109 -104 c 3 0 43 35 90 77 c 47 42 121 108 165 148 c 44 40 105 94 136 121 c 30 27 89 79 130 115 c 40 36 92 81 114 100 c 22 19 64 56 94 84 c 29 27 59 55 65 60 c 115 101 203 181 255 230 c 35 33 69 65 75 70 c 44 40 574 552 761 736 c 127 124 253 248 280 275 c 99 97 115 120 115 172 c 0 63 -28 113 -105 189 c -92 90 -164 117 -225 84 z" stroke-linecap="round"/>
</g>
		<g transform="matrix(0.0979 0 0 -0.098 -59.172 59.2292)" id="985438">
<path style="stroke: none; stroke-width: 1; stroke-dasharray: none; stroke-linecap: butt; stroke-dashoffset: 0; stroke-linejoin: miter; stroke-miterlimit: 4; is-custom-font: none; font-file-url: none; fill: rgb(0,0,0); fill-rule: nonzero; opacity: 1;" transform=" translate(-2459.436, -2444)" d="M 2766 2948 c -21 -24 -82 -88 -135 -143 c -53 -55 -170 -179 -261 -275 c -91 -96 -223 -235 -295 -309 c -71 -74 -138 -142 -147 -153 c -29 -29 -22 -46 43 -110 l 61 -60 l 27 24 c 68 62 326 302 406 379 c 50 47 124 117 165 155 c 42 38 138 127 214 199 c 76 71 145 134 153 140 c 12 9 13 16 5 32 c -18 33 -162 163 -181 163 c -10 0 -35 -19 -55 -42 z" stroke-linecap="round"/>
</g>
		<g transform="matrix(0.0979 0 0 -0.098 -118.3353 116.9041)" id="121108">
<path style="stroke: none; stroke-width: 1; stroke-dasharray: none; stroke-linecap: butt; stroke-dashoffset: 0; stroke-linejoin: miter; stroke-miterlimit: 4; is-custom-font: none; font-file-url: none; fill: rgb(0,0,0); fill-rule: nonzero; opacity: 1;" transform=" translate(-1855, -1855)" d="M 1787 1922 c -20 -21 -37 -42 -37 -48 c 0 -11 112 -124 123 -124 c 15 0 87 73 87 89 c 0 21 -100 121 -121 121 c -8 0 -32 -17 -52 -38 z" stroke-linecap="round"/>
</g>
		<g transform="matrix(0.0979 0 0 -0.098 118.4176 116.9041)" id="478793">
<path style="stroke: none; stroke-width: 1; stroke-dasharray: none; stroke-linecap: butt; stroke-dashoffset: 0; stroke-linejoin: miter; stroke-miterlimit: 4; is-custom-font: none; font-file-url: none; fill: rgb(0,0,0); fill-rule: nonzero; opacity: 1;" transform=" translate(-4275, -1855)" d="M 4226 1905 c -31 -31 -56 -62 -56 -69 c 0 -17 75 -86 93 -86 c 18 0 117 102 117 121 c 0 17 -70 89 -87 89 c -6 0 -36 -25 -67 -55 z" stroke-linecap="round"/>
</g>
		<g transform="matrix(0.0979 0 0 -0.098 -133.6629 132.284)" id="682254">
<path style="stroke: none; stroke-width: 1; stroke-dasharray: none; stroke-linecap: butt; stroke-dashoffset: 0; stroke-linejoin: miter; stroke-miterlimit: 4; is-custom-font: none; font-file-url: none; fill: rgb(0,0,0); fill-rule: nonzero; opacity: 1;" transform=" translate(-1698.3279, -1697.9885)" d="M 1633 1758 c -22 -24 -39 -49 -36 -55 c 3 -7 27 -36 53 -63 c 41 -43 52 -49 68 -41 c 22 12 82 78 82 90 c 0 11 -106 111 -117 111 c -5 0 -27 -19 -50 -42 z" stroke-linecap="round"/>
</g>
		<g transform="matrix(0.0979 0 0 -0.098 134.0188 132.8981)" id="219897">
<path style="stroke: none; stroke-width: 1; stroke-dasharray: none; stroke-linecap: butt; stroke-dashoffset: 0; stroke-linejoin: miter; stroke-miterlimit: 4; is-custom-font: none; font-file-url: none; fill: rgb(0,0,0); fill-rule: nonzero; opacity: 1;" transform=" translate(-4434.4748, -1691.7188)" d="M 4442 1793 c -13 -5 -56 -46 -95 -91 c -18 -20 -18 -21 23 -66 c 24 -25 48 -46 54 -46 c 14 0 101 89 109 111 c 7 20 -72 99 -91 92 z" stroke-linecap="round"/>
</g>
		<g transform="matrix(0.0979 0 0 -0.098 -149.7389 147.3175)" id="704614">
<path style="stroke: none; stroke-width: 1; stroke-dasharray: none; stroke-linecap: butt; stroke-dashoffset: 0; stroke-linejoin: miter; stroke-miterlimit: 4; is-custom-font: none; font-file-url: none; fill: rgb(0,0,0); fill-rule: nonzero; opacity: 1;" transform=" translate(-1534, -1544.5157)" d="M 1475 1600 l -49 -50 l 54 -55 c 30 -30 59 -55 65 -55 c 6 0 30 20 54 44 l 43 44 l -53 60 c -30 33 -56 61 -59 61 c -3 1 -28 -22 -55 -49 z" stroke-linecap="round"/>
</g>
		<g transform="matrix(0.0979 0 0 -0.098 149.4235 147.7597)" id="694303">
<path style="stroke: none; stroke-width: 1; stroke-dasharray: none; stroke-linecap: butt; stroke-dashoffset: 0; stroke-linejoin: miter; stroke-miterlimit: 4; is-custom-font: none; font-file-url: none; fill: rgb(0,0,0); fill-rule: nonzero; opacity: 1;" transform=" translate(-4591.9323, -1540)" d="M 4540 1584 l -53 -56 l 44 -44 c 24 -24 49 -44 57 -44 c 12 0 36 23 96 89 c 20 22 20 22 -24 66 c -24 25 -49 45 -56 45 c -6 0 -35 -25 -64 -56 z" stroke-linecap="round"/>
</g>
		<g transform="matrix(0.0979 0 0 -0.098 -165.7839 163.395)" id="217909">
<path style="stroke: none; stroke-width: 1; stroke-dasharray: none; stroke-linecap: butt; stroke-dashoffset: 0; stroke-linejoin: miter; stroke-miterlimit: 4; is-custom-font: none; font-file-url: none; fill: rgb(0,0,0); fill-rule: nonzero; opacity: 1;" transform=" translate(-1370, -1380.3806)" d="M 1312 1437 c -23 -23 -42 -46 -42 -49 c 0 -9 98 -102 112 -107 c 14 -5 88 70 88 89 c 0 17 -89 110 -106 110 c -5 0 -29 -19 -52 -43 z" stroke-linecap="round"/>
</g>
		<g transform="matrix(0.0979 0 0 -0.098 165.8655 163.4324)" id="783548">
<path style="stroke: none; stroke-width: 1; stroke-dasharray: none; stroke-linecap: butt; stroke-dashoffset: 0; stroke-linejoin: miter; stroke-miterlimit: 4; is-custom-font: none; font-file-url: none; fill: rgb(0,0,0); fill-rule: nonzero; opacity: 1;" transform=" translate(-4760, -1380)" d="M 4707 1432 c -26 -26 -47 -54 -47 -63 c 0 -18 71 -89 89 -89 c 15 0 111 90 111 105 c 0 13 -82 95 -95 95 c -6 0 -32 -22 -58 -48 z" stroke-linecap="round"/>
</g>
		<g transform="matrix(0.0979 0 0 -0.098 -180.9477 179.1049)" id="664771">
<path style="stroke: none; stroke-width: 1; stroke-dasharray: none; stroke-linecap: butt; stroke-dashoffset: 0; stroke-linejoin: miter; stroke-miterlimit: 4; is-custom-font: none; font-file-url: none; fill: rgb(0,0,0); fill-rule: nonzero; opacity: 1;" transform=" translate(-1215, -1220)" d="M 1147 1282 c -20 -21 -37 -41 -37 -46 c 0 -13 102 -116 116 -116 c 13 0 94 79 94 92 c 0 15 -102 108 -119 108 c -9 0 -34 -17 -54 -38 z" stroke-linecap="round"/>
</g>
		<g transform="matrix(0.0979 0 0 -0.098 181.0299 179.7909)" id="926878">
<path style="stroke: none; stroke-width: 1; stroke-dasharray: none; stroke-linecap: butt; stroke-dashoffset: 0; stroke-linejoin: miter; stroke-miterlimit: 4; is-custom-font: none; font-file-url: none; fill: rgb(0,0,0); fill-rule: nonzero; opacity: 1;" transform=" translate(-4915, -1213)" d="M 4864 1269 c -30 -29 -54 -56 -54 -62 c 0 -5 20 -30 45 -55 l 46 -46 l 59 59 c 33 33 60 65 60 72 c 0 12 -81 83 -94 83 c -4 0 -32 -23 -62 -51 z" stroke-linecap="round"/>
</g>
		<g transform="matrix(0.0979 0 0 -0.098 -217.2831 214.8169)" id="70213">
<path style="stroke: none; stroke-width: 1; stroke-dasharray: none; stroke-linecap: butt; stroke-dashoffset: 0; stroke-linejoin: miter; stroke-miterlimit: 4; is-custom-font: none; font-file-url: none; fill: rgb(0,0,0); fill-rule: nonzero; opacity: 1;" transform=" translate(-843.4476, -855.5235)" d="M 915 1064 c -131 -124 -244 -204 -292 -204 c -77 0 -108 -48 -83 -126 c 14 -42 119 -152 170 -177 c 73 -37 129 -8 138 70 c 7 63 61 142 193 283 c 57 62 108 119 113 127 c 6 11 -7 31 -50 74 c -32 32 -63 59 -69 59 c -5 0 -59 -48 -120 -106 z" stroke-linecap="round"/>
</g>
		<g transform="matrix(0.0979 0 0 -0.098 217.162 215.7794)" id="109506">
<path style="stroke: none; stroke-width: 1; stroke-dasharray: none; stroke-linecap: butt; stroke-dashoffset: 0; stroke-linejoin: miter; stroke-miterlimit: 4; is-custom-font: none; font-file-url: none; fill: rgb(0,0,0); fill-rule: nonzero; opacity: 1;" transform=" translate(-5284.1846, -845.6973)" d="M 5030 1115 c -33 -32 -60 -64 -60 -71 c 0 -7 43 -58 96 -113 c 53 -56 123 -136 155 -178 c 50 -67 59 -84 59 -121 c 0 -35 6 -50 29 -73 c 16 -16 38 -29 49 -29 c 38 0 88 34 158 105 c 74 76 92 115 78 170 c -8 31 -55 58 -87 50 c -37 -10 -157 75 -297 209 c -130 123 -110 117 -180 51 z" stroke-linecap="round"/>
</g>
</g>
</g>
</svg>